<svg width="24" height="25" viewBox="0 0 24 25" fill="none" xmlns="http://www.w3.org/2000/svg">
<path d="M16.9616 3.91875C16.9616 3.78615 16.9111 3.65897 16.8212 3.5652C16.7314 3.47143 16.6095 3.41875 16.4824 3.41875H14.0866C12.8802 3.35605 11.699 3.79415 10.8012 4.63733C9.90332 5.48052 9.3618 6.66025 9.29492 7.91875V10.6188H6.89909C6.77201 10.6188 6.65013 10.6714 6.56027 10.7652C6.47041 10.859 6.41992 10.9861 6.41992 11.1188V13.7188C6.41992 13.8514 6.47041 13.9785 6.56027 14.0723C6.65013 14.1661 6.77201 14.2188 6.89909 14.2188H9.29492V20.9188C9.29492 21.0514 9.34541 21.1785 9.43527 21.2723C9.52513 21.3661 9.64701 21.4188 9.77409 21.4188H12.6491C12.7762 21.4188 12.898 21.3661 12.9879 21.2723C13.0778 21.1785 13.1283 21.0514 13.1283 20.9188V14.2188H15.6391C15.7456 14.2204 15.8497 14.1848 15.9347 14.1178C16.0198 14.0508 16.081 13.9561 16.1087 13.8488L16.7987 11.2488C16.8177 11.1749 16.8203 11.0974 16.8062 11.0223C16.792 10.9473 16.7616 10.8766 16.7171 10.8157C16.6727 10.7549 16.6155 10.7055 16.5499 10.6713C16.4842 10.6372 16.412 10.6192 16.3387 10.6188H13.1283V7.91875C13.1521 7.67123 13.2635 7.44187 13.4407 7.27545C13.6179 7.10903 13.8482 7.01751 14.0866 7.01875H16.4824C16.6095 7.01875 16.7314 6.96608 16.8212 6.87231C16.9111 6.77854 16.9616 6.65136 16.9616 6.51875V3.91875Z" fill="#21264F"/>
</svg>
