<svg width="22" height="23" viewBox="0 0 22 23" fill="none" xmlns="http://www.w3.org/2000/svg">
<path fill-rule="evenodd" clip-rule="evenodd" d="M6.43391 0.624838C7.55803 0.570838 7.91645 0.558838 10.7799 0.558838C13.6434 0.558838 14.0019 0.571838 15.125 0.624838C16.2482 0.677838 17.0149 0.864838 17.6857 1.13584C18.3882 1.41284 19.0254 1.84584 19.5525 2.40584C20.0892 2.95484 20.5032 3.61884 20.7677 4.35284C21.0284 5.05284 21.2066 5.85284 21.2584 7.02284C21.3101 8.19784 21.3216 8.57184 21.3216 11.5588C21.3216 14.5468 21.3092 14.9208 21.2584 16.0938C21.2076 17.2638 21.0284 18.0638 20.7677 18.7638C20.5032 19.4979 20.0885 20.163 19.5525 20.7128C19.0254 21.2728 18.3882 21.7048 17.6857 21.9808C17.0149 22.2528 16.2482 22.4388 15.1269 22.4928C14.0019 22.5468 13.6434 22.5588 10.7799 22.5588C7.91645 22.5588 7.55803 22.5458 6.43391 22.4928C5.31266 22.4398 4.54599 22.2528 3.87516 21.9808C3.17166 21.7048 2.53428 21.2721 2.00736 20.7128C1.47106 20.1635 1.05604 19.4987 0.79124 18.7648C0.531531 18.0648 0.353281 17.2648 0.301531 16.0948C0.249781 14.9198 0.238281 14.5458 0.238281 11.5588C0.238281 8.57084 0.25074 8.19684 0.301531 7.02484C0.352323 5.85284 0.531531 5.05284 0.79124 4.35284C1.05643 3.61892 1.47177 2.95415 2.00832 2.40484C2.53449 1.84534 3.17123 1.41228 3.8742 1.13584C4.54503 0.864838 5.3117 0.678838 6.43295 0.624838H6.43391ZM15.0397 2.60484C13.9281 2.55184 13.5946 2.54084 10.7799 2.54084C7.96532 2.54084 7.63182 2.55184 6.52016 2.60484C5.49186 2.65384 4.93411 2.83284 4.56228 2.98384C4.07066 3.18384 3.71895 3.42084 3.34999 3.80584C3.00024 4.16089 2.73108 4.59312 2.56224 5.07084C2.41753 5.45884 2.24599 6.04084 2.19903 7.11384C2.14824 8.27384 2.1377 8.62184 2.1377 11.5588C2.1377 14.4958 2.14824 14.8438 2.19903 16.0038C2.24599 17.0768 2.41753 17.6588 2.56224 18.0468C2.73091 18.5238 3.0002 18.9568 3.34999 19.3118C3.6902 19.6768 4.10516 19.9578 4.56228 20.1338C4.93411 20.2848 5.49186 20.4638 6.52016 20.5128C7.63182 20.5658 7.96436 20.5768 10.7799 20.5768C13.5955 20.5768 13.9281 20.5658 15.0397 20.5128C16.068 20.4638 16.6258 20.2848 16.9976 20.1338C17.4892 19.9338 17.8409 19.6968 18.2099 19.3118C18.5597 18.9568 18.829 18.5238 18.9977 18.0468C19.1424 17.6588 19.3139 17.0768 19.3609 16.0038C19.4117 14.8438 19.4222 14.4958 19.4222 11.5588C19.4222 8.62184 19.4117 8.27384 19.3609 7.11384C19.3139 6.04084 19.1424 5.45884 18.9977 5.07084C18.806 4.55784 18.5789 4.19084 18.2099 3.80584C17.8696 3.44091 17.4554 3.16005 16.9976 2.98384C16.6258 2.83284 16.068 2.65384 15.0397 2.60484V2.60484ZM9.43349 14.9498C10.1855 15.2765 11.0228 15.3206 11.8024 15.0746C12.5821 14.8286 13.2557 14.3078 13.7082 13.6011C14.1608 12.8944 14.3642 12.0457 14.2837 11.1999C14.2032 10.3542 13.8437 9.56381 13.2668 8.96384C12.8991 8.58031 12.4544 8.28665 11.9648 8.10398C11.4752 7.92132 10.9529 7.8542 10.4354 7.90745C9.91799 7.96071 9.4183 8.13301 8.97234 8.41197C8.52638 8.69092 8.14524 9.06958 7.85636 9.52069C7.56748 9.9718 7.37805 10.4841 7.30169 11.0208C7.22534 11.5575 7.26397 12.1051 7.4148 12.6244C7.56563 13.1436 7.82491 13.6214 8.17397 14.0236C8.52304 14.4257 8.9532 14.742 9.43349 14.9498ZM6.94853 7.56084C7.45168 7.03581 8.049 6.61934 8.7064 6.3352C9.3638 6.05106 10.0684 5.90481 10.7799 5.90481C11.4915 5.90481 12.1961 6.05106 12.8535 6.3352C13.5109 6.61934 14.1082 7.03581 14.6114 7.56084C15.1145 8.08586 15.5136 8.70916 15.7859 9.39514C16.0582 10.0811 16.1984 10.8163 16.1984 11.5588C16.1984 12.3013 16.0582 13.0366 15.7859 13.7225C15.5136 14.4085 15.1145 15.0318 14.6114 15.5568C13.5952 16.6172 12.217 17.2129 10.7799 17.2129C9.34289 17.2129 7.96469 16.6172 6.94853 15.5568C5.93238 14.4965 5.36151 13.0584 5.36151 11.5588C5.36151 10.0593 5.93238 8.62117 6.94853 7.56084V7.56084ZM17.4001 6.74684C17.5248 6.62411 17.6246 6.47652 17.6937 6.31281C17.7627 6.1491 17.7996 5.97261 17.8021 5.79377C17.8046 5.61493 17.7726 5.43739 17.7082 5.27165C17.6438 5.10591 17.5481 4.95535 17.4269 4.82888C17.3057 4.70241 17.1614 4.6026 17.0026 4.53536C16.8438 4.46812 16.6736 4.43481 16.5022 4.43742C16.3308 4.44003 16.1617 4.47849 16.0048 4.55053C15.8479 4.62258 15.7065 4.72673 15.5889 4.85684C15.3601 5.10987 15.2349 5.44596 15.2397 5.79377C15.2446 6.14158 15.3792 6.47372 15.6149 6.71968C15.8506 6.96564 16.1689 7.10607 16.5022 7.11114C16.8355 7.11621 17.1576 6.98553 17.4001 6.74684V6.74684Z" fill="#21264F"/>
</svg>
