<svg width="22" height="23" viewBox="0 0 22 23" fill="none" xmlns="http://www.w3.org/2000/svg">
<path fill-rule="evenodd" clip-rule="evenodd" d="M0.544922 2.25377C0.544922 1.76631 0.730499 1.2988 1.06083 0.954112C1.39116 0.60942 1.83918 0.415774 2.30634 0.415774H19.8649C20.0964 0.415379 20.3257 0.462637 20.5397 0.554841C20.7537 0.647044 20.9482 0.782384 21.112 0.95311C21.2757 1.12384 21.4057 1.3266 21.4943 1.54978C21.5828 1.77297 21.6284 2.0122 21.6283 2.25377V20.5758C21.6285 20.8174 21.5831 21.0567 21.4946 21.28C21.4062 21.5033 21.2764 21.7062 21.1127 21.8771C20.949 22.048 20.7546 22.1835 20.5407 22.276C20.3267 22.3684 20.0974 22.4159 19.8659 22.4158H2.30634C2.07495 22.4158 1.84582 22.3682 1.63205 22.2758C1.41828 22.1833 1.22407 22.0479 1.06049 21.8771C0.896915 21.7063 0.76719 21.5036 0.678727 21.2805C0.590264 21.0573 0.544796 20.8182 0.544922 20.5768V2.25377ZM8.89009 8.80377H11.745V10.2998C12.157 9.43978 13.2112 8.66578 14.7953 8.66578C17.8323 8.66578 18.552 10.3788 18.552 13.5218V19.3438H15.4786V14.2378C15.4786 12.4478 15.0665 11.4378 14.02 11.4378C12.5682 11.4378 11.9644 12.5268 11.9644 14.2378V19.3438H8.89009V8.80377ZM3.61926 19.2068H6.69359V8.66578H3.61926V19.2058V19.2068ZM7.13346 5.22777C7.13926 5.50245 7.09242 5.77556 6.99569 6.03109C6.89897 6.28662 6.7543 6.51941 6.57019 6.71581C6.38607 6.9122 6.16622 7.06825 5.92353 7.17478C5.68083 7.28131 5.42019 7.33619 5.1569 7.33619C4.89361 7.33619 4.63297 7.28131 4.39028 7.17478C4.14759 7.06825 3.92773 6.9122 3.74362 6.71581C3.5595 6.51941 3.41484 6.28662 3.31811 6.03109C3.22138 5.77556 3.17454 5.50245 3.18034 5.22777C3.19172 4.68863 3.40496 4.17557 3.7744 3.79846C4.14383 3.42136 4.6401 3.21019 5.1569 3.21019C5.67371 3.21019 6.16997 3.42136 6.53941 3.79846C6.90885 4.17557 7.12209 4.68863 7.13346 5.22777V5.22777Z" fill="#21264F"/>
</svg>
