<svg width="25" height="25" viewBox="0 0 25 25" fill="none" xmlns="http://www.w3.org/2000/svg">
<path d="M22.2834 6.64545C22.3414 6.56468 22.2558 6.46039 22.1631 6.49632C21.5043 6.75165 20.8159 6.92392 20.1137 7.00881C20.8956 6.54169 21.4989 5.83061 21.8335 4.98875C21.8676 4.90299 21.774 4.8264 21.6932 4.87101C20.9665 5.27235 20.1827 5.56135 19.3686 5.72779C19.3345 5.73475 19.2993 5.72315 19.2754 5.6979C18.6645 5.05323 17.8602 4.62399 16.9835 4.47566C16.0883 4.32422 15.1682 4.47417 14.3675 4.902C13.5667 5.32983 12.9306 6.01134 12.5589 6.83965C12.2055 7.62721 12.1101 8.50512 12.2844 9.34825C12.298 9.41366 12.2468 9.47543 12.1801 9.47129C10.596 9.3729 9.04833 8.95157 7.63232 8.23267C6.2199 7.5156 4.96917 6.51804 3.9563 5.30151C3.91135 5.24752 3.82615 5.25451 3.7934 5.31666C3.47823 5.91473 3.31321 6.58132 3.31366 7.25881C3.31238 7.93319 3.47788 8.59743 3.79542 9.19238C4.11295 9.78732 4.57268 10.2945 5.13366 10.6688C4.53874 10.6526 3.95541 10.5055 3.42491 10.2389C3.35654 10.2045 3.27453 10.2535 3.27809 10.3299C3.31946 11.2191 3.64591 12.1119 4.21098 12.7968C4.8123 13.5257 5.64692 14.0245 6.57366 14.2088C6.21692 14.3174 5.84654 14.3746 5.47366 14.3788C5.27072 14.3764 5.06818 14.3615 4.8672 14.334C4.79268 14.3238 4.73183 14.3946 4.75792 14.4651C5.03433 15.2126 5.52266 15.8649 6.16474 16.341C6.85119 16.85 7.67924 17.1324 8.53366 17.1488C7.09086 18.2841 5.30954 18.9037 3.47366 18.9088C3.28502 18.9094 3.09646 18.9033 2.90834 18.8905C2.80233 18.8833 2.75358 19.0245 2.84495 19.0787C4.63372 20.1403 6.67825 20.7014 8.76366 20.6988C10.3034 20.7148 11.8308 20.4238 13.2568 19.8429C14.6828 19.262 15.9787 18.4027 17.0689 17.3153C18.159 16.2279 19.0216 14.9342 19.6062 13.5097C20.1908 12.0852 20.4857 10.5585 20.4737 9.01881V8.53898C20.4737 8.50741 20.4886 8.47772 20.5138 8.4587C21.1921 7.94656 21.7886 7.33512 22.2834 6.64545Z" fill="#21264F"/>
</svg>
