<svg width="200" height="200" viewBox="0 0 200 200" fill="none" xmlns="http://www.w3.org/2000/svg">
<g clip-path="url(#clip0_2_13)">
<path d="M12.4307 85.0112C12.6508 80.405 13.4995 76.255 13.8642 72.5112C17.7307 63.2862 20.4907 56.3925 24.1057 49.5675C27.8842 42.9675 32.0273 35.9175 40.4707 29.4487C47.7322 23.5362 54.4593 19.0175 61.7145 15.7237C68.9697 12.5362 76.5518 9.90496 85.5988 9.21121C86.9065 7.99871 89.8111 7.1487 93.6587 6.9237C97.4938 6.37995 102.215 6.85496 107.138 7.26121C117.021 8.52371 127.087 12.1675 133.877 13.5925C142.339 17.0112 147.5 18.4112 141.496 14.4362C152.907 20.7612 149.085 20.4362 158.056 26.3925C158.113 26.2987 154.404 25.1737 154.404 25.1737C157.138 27.3862 159.339 30.6925 162.904 33.53L167.33 36.4737C169.48 39.4237 170.97 41.4675 172.435 43.4737C174.132 45.5362 175.61 47.5675 177.037 49.6862C178.521 51.7675 180.092 53.8675 181.312 56.4175C182.601 58.9237 184.066 61.6237 184.921 64.9925C182.695 56.1675 187.046 68.5987 187.706 67.3362C188.228 69.4362 189.749 77.7425 188.756 75.0175C191.17 86.3675 193.848 97.3925 191.302 104.042C191.302 104.042 191.654 108.405 191.528 108.399C191.327 115.867 189.064 121.524 186.58 127.792L186.933 128.911C185.958 133.355 182.261 140.911 179.652 143.924C173.573 154.017 164.827 166.286 155.051 174.355C149.927 177.892 148.33 178.642 147.274 180.024C146.124 181.255 145.262 182.724 140.145 185.342C136.844 186.892 132.179 188.605 127.854 190.267C123.421 191.567 119.266 192.674 116.996 192.586C126.829 190.174 127.583 188.005 137.341 184.374C135.411 184.936 139.309 182.861 142.559 181.055C145.734 179.092 148.123 177.192 143.992 179.192C135.75 184.686 125.106 188.68 114.318 190.536C108.924 191.599 103.498 191.792 98.2859 192.142C93.0803 191.974 88.0696 192.117 83.4612 191.605C84.2722 190.761 78.6894 189.774 72.132 187.849C68.8125 187.042 65.3987 185.561 62.186 184.567C59.0739 183.317 56.3642 182.011 54.5096 181.23L54.2958 180.536C51.3284 178.692 48.8199 177.124 45.9027 175.311C43.1867 173.155 39.6094 171.261 35.4663 167.705C25.5957 159.192 17.6238 148.561 13.8893 138.217C10.8024 130.767 8.18703 122.455 6.11232 115.061C4.15078 107.636 3.20144 101.086 2.34641 97.5612C1.62969 107.649 3.55351 117.436 6.23806 126.142C9.33126 134.761 12.6759 142.48 15.5617 149.661C8.74028 137.174 8.22475 136.424 3.45921 126.374C3.45921 126.374 3.74212 127.811 4.10677 129.236C4.45884 130.667 4.8172 132.099 4.8172 132.099L2.78021 127.73C2.85566 130.299 0.422592 124.355 0.0327981 125.211C-0.545605 125.399 6.04945 141.949 6.40152 141.792C2.81165 132.949 6.26949 138.355 8.1053 140.467C8.1053 140.467 9.02948 142.517 9.95367 144.574C10.9659 146.58 12.1353 148.511 12.1353 148.511C11.3117 146.542 8.74028 141.705 12.4748 147.055C13.3486 148.617 14.4929 150.367 15.6308 152.18C16.8128 153.942 18.1896 155.649 19.1641 157.399C19.1641 157.399 13.619 152.574 13.7699 152.442C20.8868 160.799 24.3446 169.049 33.6996 175.542L35.4726 178.805C35.4726 178.805 37.6353 180.38 39.798 181.955C41.9796 183.492 44.3372 184.774 44.3372 184.774L43.017 184.599C43.017 184.599 45.7518 186.317 48.4804 188.03C51.3158 189.574 54.233 190.98 54.233 190.98C60.608 193.874 62.0351 193.055 63.3051 193.124C68.2592 195.099 73.358 195.83 75.3447 196.761L69.0954 196.124L74.6028 197.842C70.8558 196.58 79.3746 198.53 80.8647 198.142C84.027 198.674 86.1646 199.036 87.7301 199.299C89.2767 199.43 90.2386 199.517 91.1187 199.592C92.7785 199.767 93.8284 199.992 97.871 200.58C102.046 200.092 106.71 200.136 110.357 199.711C113.997 199.217 116.657 198.774 116.776 198.136C131.959 196.336 147.287 189.461 158.949 180.892L163.57 176.474C170.329 171.224 174.616 166.624 178.445 161.636C182.154 156.549 185.637 151.205 189.523 143.292L189.24 144.711C189.24 144.711 190.076 142.43 190.906 140.149C191.315 139.017 191.723 137.886 192.031 137.036C192.264 136.161 192.415 135.574 192.415 135.574C193.722 132.549 194.747 129.924 195.539 127.474C196.074 125.024 196.583 122.68 197.111 120.274C197.708 117.924 197.859 115.424 198.306 112.63C198.538 111.242 198.783 109.78 199.06 108.142C199.23 106.58 199.418 104.874 199.639 102.886C199.789 100.83 199.984 98.9175 199.997 97.1237C199.896 95.3362 199.802 93.6925 199.708 92.1237C199.513 89.03 199.18 86.4112 198.513 84.1862C197.381 79.7175 196.187 76.7362 194.615 74.4175C192.32 66.9675 189.441 57.5862 186.323 51.2175L188.856 55.1112L186.826 49.5112C181.205 40.9675 181.639 39.8737 172.359 30.2425C159.961 16.7425 159.634 21.2925 153.241 17.3612C153.241 17.3612 152.436 16.6612 151.141 15.7362C149.852 14.78 148.129 13.505 146.407 12.2362C144.715 10.8862 142.773 9.9612 141.408 9.0737C140.013 8.24245 139.082 7.6862 139.082 7.6862L139.277 8.16746C134.336 6.76121 132.336 6.66121 128.941 5.26746C127.256 4.53621 125.043 4.0362 121.868 3.1237C118.719 2.07995 114.412 1.45495 108.496 0.586203L109.452 1.78621C101.593 -0.0450391 98.0219 1.36745 87.8998 2.07995C86.6676 2.27995 84.7815 2.46745 82.5056 2.6737C80.2108 2.80495 77.5577 3.14245 74.8354 3.7987C69.3029 4.7237 63.5377 6.90496 59.7152 9.14246C55.5784 10.8925 51.9193 12.4237 49.0022 14.5487C45.9719 16.48 43.3753 18.4487 41.0931 20.6737C38.7041 22.7487 36.5225 24.905 34.3786 27.3237C33.2093 28.53 32.0713 29.6987 30.9208 30.8862C29.8143 32.1987 28.6323 33.5362 27.3435 34.9112C20.6478 41.23 18.8435 47.83 16.511 48.3987L17.3535 46.9862L14.0905 49.0175L14.9518 49.9862C11.6952 54.5175 8.8786 61.9425 6.11861 66.0362C6.11861 66.0362 5.45219 69.2487 5.31387 72.53C5.18813 74.1425 5.06239 75.755 4.96809 76.9675C4.84863 78.1612 4.8675 78.9737 4.8675 78.9737C5.34531 75.8987 6.40152 72.5925 7.40115 69.2862L6.96735 69.5175C7.99842 66.3862 10.5195 58.6925 12.8583 55.5675L11.2299 59.855C13.7825 55.2612 12.3993 59.4425 11.9466 60.8112C7.77209 70.355 9.66447 68.055 7.97956 75.7237C7.30685 77.38 6.5084 80.6675 6.4141 79.3737C6.24435 81.705 5.20699 85.8425 4.90522 89.5487C4.6726 93.2612 4.59087 96.4487 5.20071 96.655C5.11269 97.0112 5.06239 97.2362 4.98066 97.5737C6.11232 96.7987 7.28799 95.13 8.47623 92.9237C9.63932 90.6987 10.815 87.9487 12.4307 85.0112Z" fill="#FF0000"/>
<path d="M134.719 53.7062H65.2812C58.7437 53.7062 53.7062 58.7437 53.7062 65.2812V134.719C53.7062 141.25 58.7437 146.294 65.2812 146.294H134.719C141.25 146.294 146.294 141.256 146.294 134.719V65.2812C146.294 58.7437 141.25 53.7062 134.719 53.7062ZM100.069 81.8125C110.337 81.8125 118.656 89.875 118.656 99.825C118.656 109.769 110.337 117.837 100.069 117.837C89.8062 117.837 81.4875 109.769 81.4875 99.825C81.4875 89.875 89.8125 81.8125 100.069 81.8125ZM134.719 131.825C134.719 133.856 133.85 134.719 131.825 134.719H68.175C66.15 134.719 65.2812 133.856 65.2812 131.825V91.3187L72.4937 92.8875C71.7187 95.4062 71.3 98.0687 71.3 100.831C71.3 116.219 84.1875 128.706 100.069 128.706C115.956 128.706 128.837 116.225 128.837 100.831C128.837 98.0687 128.419 95.4062 127.644 92.8875L134.719 91.3187V131.825ZM134.719 79.75C134.719 81.35 133.425 82.6437 131.825 82.6437H120.25C118.65 82.6437 117.356 81.35 117.356 79.75V68.175C117.356 66.575 118.65 65.2812 120.25 65.2812H131.825C133.425 65.2812 134.719 66.575 134.719 68.175V79.75Z" fill="white"/>
</g>
<defs>
<clipPath id="clip0_2_13">
<rect width="200" height="200" fill="white"/>
</clipPath>
</defs>
</svg>
