<svg width="200" height="200" viewBox="0 0 200 200" fill="none" xmlns="http://www.w3.org/2000/svg">
<g clip-path="url(#clip0_107_2)">
<path d="M12.4307 85.0112C12.6508 80.405 13.4995 76.255 13.8642 72.5112C17.7307 63.2862 20.4907 56.3925 24.1057 49.5675C27.8842 42.9675 32.0273 35.9175 40.4707 29.4487C47.7322 23.5362 54.4593 19.0175 61.7145 15.7237C68.9697 12.5362 76.5518 9.90496 85.5988 9.21122C86.9065 7.99871 89.811 7.14871 93.6587 6.92372C97.4938 6.37997 102.215 6.85498 107.138 7.26121C117.021 8.52372 127.087 12.1675 133.877 13.5925C142.339 17.0112 147.5 18.4112 141.496 14.4362C152.907 20.7612 149.085 20.4362 158.056 26.3925C158.113 26.2987 154.404 25.1737 154.404 25.1737C157.138 27.3862 159.339 30.6925 162.904 33.53L167.33 36.4737C169.48 39.4237 170.97 41.4675 172.435 43.4737C174.132 45.5362 175.61 47.5675 177.037 49.6862C178.521 51.7675 180.092 53.8675 181.312 56.4175C182.601 58.9237 184.066 61.6237 184.921 64.9925C182.695 56.1675 187.046 68.5987 187.706 67.3362C188.228 69.4362 189.749 77.7425 188.756 75.0175C191.17 86.3675 193.848 97.3925 191.302 104.042C191.302 104.042 191.654 108.405 191.528 108.399C191.327 115.867 189.064 121.524 186.58 127.792L186.932 128.911C185.958 133.355 182.261 140.911 179.652 143.924C173.573 154.017 164.827 166.286 155.051 174.355C149.927 177.892 148.33 178.642 147.274 180.024C146.124 181.255 145.262 182.724 140.145 185.342C136.844 186.892 132.179 188.605 127.854 190.267C123.421 191.567 119.266 192.674 116.996 192.586C126.829 190.174 127.583 188.005 137.341 184.374C135.411 184.936 139.309 182.861 142.559 181.055C145.734 179.092 148.123 177.192 143.992 179.192C135.75 184.686 125.106 188.68 114.318 190.536C108.924 191.599 103.498 191.792 98.2859 192.142C93.0803 191.974 88.0696 192.117 83.4612 191.605C84.2722 190.761 78.6894 189.774 72.132 187.849C68.8125 187.042 65.3987 185.561 62.186 184.567C59.0739 183.317 56.3642 182.011 54.5096 181.23L54.2958 180.536C51.3284 178.692 48.8199 177.124 45.9027 175.311C43.1867 173.155 39.6094 171.261 35.4663 167.705C25.5957 159.192 17.6238 148.561 13.8893 138.217C10.8024 130.767 8.18703 122.455 6.11232 115.061C4.15078 107.636 3.20144 101.086 2.34641 97.5612C1.62969 107.649 3.55351 117.436 6.23806 126.142C9.33126 134.761 12.6759 142.48 15.5617 149.661C8.74028 137.174 8.22475 136.424 3.45921 126.374C3.45921 126.374 3.74212 127.811 4.10677 129.236C4.45884 130.667 4.8172 132.099 4.8172 132.099L2.78021 127.73C2.85566 130.299 0.422592 124.355 0.0327981 125.211C-0.545605 125.399 6.04945 141.949 6.40152 141.792C2.81165 132.949 6.26949 138.355 8.1053 140.467C8.1053 140.467 9.02948 142.517 9.95367 144.574C10.9659 146.58 12.1353 148.511 12.1353 148.511C11.3117 146.542 8.74028 141.705 12.4748 147.055C13.3486 148.617 14.4929 150.367 15.6308 152.18C16.8128 153.942 18.1896 155.649 19.1641 157.399C19.1641 157.399 13.619 152.574 13.7699 152.442C20.8868 160.799 24.3446 169.049 33.6996 175.542L35.4726 178.805C35.4726 178.805 37.6353 180.38 39.798 181.955C41.9796 183.492 44.3372 184.774 44.3372 184.774L43.017 184.599C43.017 184.599 45.7518 186.317 48.4804 188.03C51.3158 189.574 54.233 190.98 54.233 190.98C60.608 193.874 62.0351 193.055 63.3051 193.124C68.2592 195.099 73.358 195.83 75.3447 196.761L69.0954 196.124L74.6028 197.842C70.8558 196.58 79.3746 198.53 80.8647 198.142C84.027 198.674 86.1646 199.036 87.7301 199.299C89.2767 199.43 90.2386 199.517 91.1187 199.592C92.7785 199.767 93.8284 199.992 97.871 200.58C102.046 200.092 106.71 200.136 110.357 199.711C113.997 199.217 116.656 198.774 116.776 198.136C131.959 196.336 147.287 189.461 158.949 180.892L163.57 176.474C170.329 171.224 174.616 166.624 178.445 161.636C182.154 156.549 185.637 151.205 189.523 143.292L189.24 144.711C189.24 144.711 190.076 142.43 190.906 140.149C191.315 139.017 191.723 137.886 192.031 137.036C192.264 136.161 192.415 135.574 192.415 135.574C193.722 132.549 194.747 129.924 195.539 127.474C196.074 125.024 196.583 122.68 197.111 120.274C197.708 117.924 197.859 115.424 198.306 112.63C198.538 111.242 198.783 109.78 199.06 108.142C199.23 106.58 199.418 104.874 199.639 102.886C199.789 100.83 199.984 98.9175 199.997 97.1237C199.896 95.3362 199.802 93.6925 199.708 92.1237C199.513 89.03 199.18 86.4112 198.513 84.1862C197.381 79.7175 196.187 76.7362 194.615 74.4175C192.32 66.9675 189.441 57.5862 186.323 51.2175L188.856 55.1112L186.826 49.5112C181.205 40.9675 181.639 39.8737 172.359 30.2425C159.961 16.7425 159.634 21.2925 153.241 17.3612C153.241 17.3612 152.436 16.6612 151.141 15.7362C149.852 14.78 148.129 13.505 146.407 12.2362C144.715 10.8862 142.773 9.96121 141.408 9.07371C140.013 8.24246 139.082 7.68621 139.082 7.68621L139.277 8.16748C134.336 6.76123 132.336 6.66122 128.941 5.26747C127.256 4.53622 125.043 4.03622 121.868 3.12371C118.719 2.07997 114.412 1.45497 108.496 0.586209L109.452 1.78622C101.593 -0.045032 98.0219 1.36747 87.8998 2.07997C86.6675 2.27996 84.7815 2.46746 82.5056 2.67372C80.2108 2.80496 77.5577 3.14247 74.8354 3.79872C69.3029 4.72372 63.5377 6.90498 59.7152 9.14247C55.5784 10.8925 51.9193 12.4237 49.0022 14.5487C45.9719 16.48 43.3753 18.4487 41.0931 20.6737C38.7041 22.7487 36.5225 24.905 34.3786 27.3237C33.2093 28.53 32.0713 29.6987 30.9208 30.8862C29.8143 32.1987 28.6323 33.5362 27.3435 34.9112C20.6478 41.23 18.8435 47.83 16.511 48.3987L17.3535 46.9862L14.0905 49.0175L14.9518 49.9862C11.6952 54.5175 8.8786 61.9425 6.11861 66.0362C6.11861 66.0362 5.45219 69.2487 5.31387 72.53C5.18813 74.1425 5.06239 75.755 4.96809 76.9675C4.84863 78.1612 4.86749 78.9737 4.86749 78.9737C5.34531 75.8987 6.40152 72.5925 7.40115 69.2862L6.96735 69.5175C7.99842 66.3862 10.5195 58.6925 12.8583 55.5675L11.2299 59.855C13.7824 55.2612 12.3993 59.4425 11.9466 60.8112C7.77209 70.355 9.66447 68.055 7.97956 75.7237C7.30685 77.38 6.5084 80.6675 6.4141 79.3737C6.24435 81.705 5.20699 85.8425 4.90522 89.5487C4.6726 93.2612 4.59087 96.4487 5.20071 96.655C5.11269 97.0112 5.06239 97.2362 4.98066 97.5737C6.11232 96.7987 7.28799 95.13 8.47623 92.9237C9.63932 90.6987 10.815 87.9487 12.4307 85.0112Z" fill="#FF0000"/>
<path d="M36.7609 127.526C37.055 127.526 37.2939 127.283 37.336 126.917L38.9138 113.782L37.336 100.332C37.2939 99.9768 37.055 99.7245 36.7609 99.7245C36.4648 99.7245 36.2169 99.9853 36.1767 100.332L34.8027 113.782L36.1767 126.917C36.2179 127.275 36.4648 127.526 36.7609 127.526Z" fill="white"/>
<path d="M31.5879 122.53C31.8759 122.53 32.1058 122.296 32.1379 121.947L33.3544 113.782L32.1379 105.459C32.1058 105.111 31.8749 104.869 31.5879 104.869C31.2918 104.869 31.0619 105.111 31.0198 105.459L30 113.782L31.0198 121.947C31.0609 122.296 31.2908 122.53 31.5879 122.53Z" fill="white"/>
<path d="M42.9537 97.831C42.9216 97.3964 42.6255 97.0931 42.2552 97.0931C41.8928 97.0931 41.5967 97.3974 41.5556 97.831L40.2488 113.782L41.5556 129.14C41.5967 129.566 41.8928 129.87 42.2552 129.87C42.6255 129.87 42.9216 129.566 42.9537 129.14L44.4422 113.782L42.9537 97.831Z" fill="white"/>
<path d="M47.8066 130.496C48.2422 130.496 48.5875 130.122 48.6206 129.628L50.0258 113.783L48.6206 97.389C48.5875 96.8938 48.2422 96.5281 47.8066 96.5281C47.37 96.5281 47.0157 96.8928 46.9836 97.389L45.741 113.783L46.9836 129.628C47.0157 130.122 47.37 130.496 47.8066 130.496Z" fill="white"/>
<path d="M53.3912 130.749C53.8931 130.749 54.2956 130.324 54.3357 129.757L54.3277 129.766L55.6596 113.782L54.3277 98.57C54.2956 98.0134 53.8921 97.5883 53.3912 97.5883C52.8803 97.5883 52.4859 98.0134 52.4538 98.5795L51.2855 113.783L52.4538 129.759C52.4859 130.324 52.8803 130.749 53.3912 130.749Z" fill="white"/>
<path d="M61.3275 113.782L60.0849 89.0569C60.0528 88.4314 59.5921 87.9268 59.025 87.9268C58.4569 87.9268 57.9962 88.4314 57.9641 89.0569L56.8701 113.782L57.9641 129.766C57.9962 130.393 58.4569 130.879 59.025 130.879C59.5921 130.879 60.0528 130.393 60.0849 129.766L61.3275 113.782Z" fill="white"/>
<path d="M64.7159 130.913C65.3322 130.913 65.8592 130.365 65.8842 129.662V129.679L67.0435 113.782L65.8842 83.4008C65.8592 82.6979 65.3322 82.1498 64.7159 82.1498C64.0746 82.1498 63.5567 82.6979 63.5225 83.4008L62.5038 113.782L63.5316 129.672C63.5567 130.366 64.0746 130.913 64.7159 130.913Z" fill="white"/>
<path d="M70.432 79.4835C69.7254 79.4835 69.1654 80.092 69.1333 80.8638L68.1868 113.798L69.1333 129.504C69.1654 130.27 69.7254 130.878 70.432 130.878C71.1397 130.878 71.7067 130.279 71.7318 129.504V129.514L72.8098 113.798L71.7318 80.8638C71.7067 80.092 71.1397 79.4835 70.432 79.4835Z" fill="white"/>
<path d="M76.2053 130.913C76.9791 130.913 77.5864 130.253 77.6205 129.401V129.419L78.6162 113.8L77.6205 79.7612C77.5874 78.9099 76.9791 78.2504 76.2053 78.2504C75.4244 78.2504 74.7991 78.9099 74.7901 79.7612L73.9038 113.8L74.7911 129.419C74.7991 130.253 75.4254 130.913 76.2053 130.913Z" fill="white"/>
<path d="M82.0207 130.897C82.8518 130.897 83.5343 130.174 83.5594 129.262V129.281L84.4798 113.8L83.5594 80.6295C83.5343 79.7178 82.8518 78.9968 82.0207 78.9968C81.1826 78.9968 80.5072 79.7178 80.4831 80.6295L79.6761 113.8L80.4831 129.272C80.5072 130.174 81.1826 130.897 82.0207 130.897Z" fill="white"/>
<path d="M90.3695 113.8L89.5384 81.8455C89.5133 80.8564 88.7907 80.074 87.8853 80.074C86.973 80.074 86.2403 80.8574 86.2242 81.8455L85.4845 113.8L86.2242 129.176C86.2403 130.15 86.973 130.931 87.8853 130.931C88.7907 130.931 89.5144 130.15 89.5384 129.158V129.176L90.3695 113.8Z" fill="white"/>
<path d="M93.7901 130.958C94.7436 130.958 95.5486 130.114 95.5576 129.072L96.3144 113.8L95.5576 75.7739C95.5486 74.7317 94.7426 73.8889 93.7901 73.8889C92.8185 73.8889 92.0296 74.7402 92.0045 75.7823L91.3391 113.782L92.0045 129.072C92.0306 130.114 92.8195 130.958 93.7901 130.958Z" fill="white"/>
<path d="M99.6627 70.3086C98.6259 70.3086 97.7868 71.2204 97.7707 72.324L96.9899 113.807L97.7707 128.854C97.7878 129.957 98.6259 130.86 99.6627 130.86C100.691 130.86 101.555 129.957 101.555 128.836V128.855L102.41 113.808L101.555 72.3251C101.555 71.2129 100.691 70.3086 99.6627 70.3086Z" fill="white"/>
<path d="M105.041 130.966C105.09 130.966 152.472 131 152.778 131C162.287 131 170 122.756 170 112.582C170 102.417 162.286 94.1744 152.778 94.1744C150.417 94.1744 148.163 94.6855 146.116 95.6068C144.75 79.0148 131.73 66 115.848 66C111.967 66 108.183 66.8174 104.845 68.1988C103.544 68.7279 103.199 69.2845 103.183 70.3605V128.794C103.2 129.924 104.014 130.86 105.041 130.966Z" fill="white"/>
</g>
<defs>
<clipPath id="clip0_107_2">
<rect width="200" height="200" fill="white"/>
</clipPath>
</defs>
</svg>
